<svg width="201" height="92" viewBox="0 0 201 92" fill="none" xmlns="http://www.w3.org/2000/svg">
<path d="M129.2 59.95V65.25H127.8C125.9 65.25 124.433 64.8833 123.4 64.15C122.4 63.4167 121.717 62.4833 121.35 61.35C120.983 60.2167 120.8 59.05 120.8 57.85V33.6C119.033 33.1333 117.35 32.9 115.75 32.9C114.117 32.9 112.867 33.2333 112 33.9C111.133 34.5333 110.7 35.7333 110.7 37.5V39.65H117.6V44.65H110.7V65H104.95V44.65H100.85V39.65H104.95V37.5C104.95 35.5333 105.3 33.8 106 32.3C106.7 30.8 107.833 29.6333 109.4 28.8C110.967 27.9333 113.033 27.5 115.6 27.5C117.167 27.5 118.867 27.7 120.7 28.1C122.567 28.5 124.517 29.2167 126.55 30.25V57.85C126.55 58.35 126.667 58.8333 126.9 59.3C127.167 59.7333 127.667 59.95 128.4 59.95H129.2ZM140.661 34.85H134.611V28.9H140.661V34.85ZM140.511 65H134.761V39.65H140.511V65ZM160.832 44.5C159.999 44.5 159.049 44.7 157.982 45.1C156.916 45.5 155.649 46.2833 154.182 47.45V65H148.432V39.65H153.882V43.05C155.449 41.6833 156.932 40.7 158.332 40.1C159.732 39.4667 161.149 39.15 162.582 39.15C165.016 39.15 166.866 39.9333 168.132 41.5C169.399 43.0333 170.032 45.2 170.032 48V65H164.282V48.7C164.282 45.9 163.132 44.5 160.832 44.5ZM198.682 67.55C198.682 70.25 197.615 72.35 195.482 73.85C193.382 75.3833 190.448 76.15 186.682 76.15C184.915 76.15 183.048 75.95 181.082 75.55C179.115 75.15 177.298 74.4833 175.632 73.55L177.282 69C178.882 69.8 180.465 70.3667 182.032 70.7C183.598 71.0667 185.132 71.25 186.632 71.25C188.732 71.25 190.332 70.9667 191.432 70.4C192.532 69.8333 193.082 69.0833 193.082 68.15C193.082 66.7167 192.232 66 190.532 66H184.532C182.898 66 181.582 65.7333 180.582 65.2C179.582 64.6667 178.848 63.9833 178.382 63.15C177.915 62.2833 177.682 61.3833 177.682 60.45C177.682 59.4833 177.882 58.5833 178.282 57.75C178.715 56.8833 179.298 56.0833 180.032 55.35C178.832 54.6167 177.865 53.6333 177.132 52.4C176.432 51.1667 176.082 49.6833 176.082 47.95C176.082 45.9833 176.498 44.35 177.332 43.05C178.165 41.75 179.298 40.7833 180.732 40.15C182.198 39.4833 183.815 39.15 185.582 39.15H186.432C187.098 39.15 187.748 39.2 188.382 39.3C189.015 39.3667 189.615 39.4833 190.182 39.65H199.232V44.55L194.232 43.75C194.732 44.2833 195.115 44.95 195.382 45.75C195.682 46.5167 195.832 47.4667 195.832 48.6C195.832 50.3 195.398 51.7667 194.532 53C193.698 54.2 192.565 55.1333 191.132 55.8C189.732 56.4333 188.165 56.75 186.432 56.75H185.582C184.915 56.75 184.282 56.7 183.682 56.6C183.315 57 183.048 57.4167 182.882 57.85C182.715 58.25 182.632 58.6333 182.632 59C182.632 60.1667 183.382 60.75 184.882 60.75H190.982C193.282 60.75 195.132 61.35 196.532 62.55C197.965 63.7167 198.682 65.3833 198.682 67.55ZM186.432 52.05C187.465 52.05 188.365 51.7 189.132 51C189.932 50.3 190.332 49.2833 190.332 47.95C190.332 46.6167 189.932 45.6 189.132 44.9C188.365 44.2 187.465 43.85 186.432 43.85H185.582C184.515 43.85 183.582 44.2 182.782 44.9C182.015 45.6 181.632 46.6167 181.632 47.95C181.632 49.2833 182.015 50.3 182.782 51C183.582 51.7 184.515 52.05 185.582 52.05H186.432Z" fill="#374151"/>
<g clip-path="url(#clip0_1_11)">
<path d="M75.1705 43.3413C74.6426 37.5713 72.4552 31.9521 68.5332 27.2381L64.7431 31.0282C67.6469 34.6486 69.3251 38.9289 69.8154 43.3413H75.1705ZM60.9718 27.2569L64.7619 23.4669C60.0667 19.5259 54.4287 17.3575 48.6587 16.8295L48.6587 22.1846C53.162 22.6697 57.4335 24.4293 60.9718 27.2569ZM43.3413 22.1846L43.3413 16.8295C37.5713 17.3575 31.9522 19.5448 27.2381 23.4669L31.0282 27.2569C34.6486 24.3531 38.9289 22.6749 43.3413 22.1846ZM64.7431 60.9718L68.5332 64.7619C72.4552 60.0479 74.6426 54.4287 75.1705 48.6587L69.8154 48.6587C69.3303 53.162 67.5707 57.4335 64.7431 60.9718ZM36.5719 36.5719L40.1169 46L36.5719 55.4281L46 51.8831L55.4281 55.4281L51.8831 46L55.4281 36.5719L46 40.1169L36.5719 36.5719Z" fill="#6366F1"/>
<path d="M29.0295 62.9706C26.2454 60.1853 24.1929 56.755 23.0546 52.985C21.9164 49.2149 21.7277 45.222 22.5052 41.3614L27.1438 46L30.9151 42.2288L19.6014 30.9151L8.28766 42.2288L12.0589 46L17.1501 40.9088C15.5473 50.0164 18.2249 59.7084 25.2582 66.7418C34.4412 75.9248 48.2062 77.7349 59.1993 72.1724L56.3521 67.628C47.4519 71.8895 36.4211 70.3622 29.0295 62.9706Z" fill="#6366F1"/>
</g>
<defs>
<clipPath id="clip0_1_11">
<rect width="64" height="64" fill="white" transform="translate(46 0.745163) rotate(45)"/>
</clipPath>
</defs>
</svg>
